<?xml version="1.0" encoding="utf-8"?>
<!-- Generator: Adobe Illustrator 17.0.0, SVG Export Plug-In . SVG Version: 6.00 Build 0)  -->
<!DOCTYPE svg PUBLIC "-//W3C//DTD SVG 1.1//EN" "http://www.w3.org/Graphics/SVG/1.1/DTD/svg11.dtd">
<svg version="1.1" id="Layer_1" xmlns="http://www.w3.org/2000/svg" xmlns:xlink="http://www.w3.org/1999/xlink" x="0px" y="0px"
	 width="1247.43px" height="156.389px" viewBox="0 0 1247.43 156.389" enable-background="new 0 0 1247.43 156.389"
	 xml:space="preserve">
<g>
	<g>
		<polygon fill="#214498" points="885.425,122.576 885.425,0 860.98,10 860.98,98.132 860.98,132.529 884.668,156.389 
			885.042,156.015 885.425,156.389 885.425,155.632 901.952,139.104 		"/>
		<polygon fill="#214498" points="990.514,72.222 941.514,50.889 907.514,72.222 907.514,101.889 907.514,132.529 941.514,156.389 
			962.847,139.556 935.18,120.722 935.18,72.222 962.847,87.556 962.847,112.156 962.847,132.529 962.847,139.556 981.764,156.389 
			1003.097,139.556 990.514,130.99 		"/>
		<path fill="#214498" d="M1234.847,130.99V72.222l-47.441-20.655V0l-26.444,10v52.232l-21.865-11.343l-34,21.333v29.667v30.64
			l45.365,23.86l15.207-15.207l21.737,15.207V76.596l19.774,10.959v24.601v20.372v7.027l18.917,16.833l21.333-16.833
			L1234.847,130.99z M1132.764,117.484V72.222l28.198,15.083v46.075L1132.764,117.484z"/>
		<polygon fill="#214498" points="1035.18,72.222 1035.07,72.222 1006.93,50.889 997.93,72.306 1007.514,82.441 1007.514,101.889 
			1007.514,132.529 1041.514,156.389 1062.847,139.556 1035.18,120.722 		"/>
		<polygon fill="#214498" points="1090.514,72.222 1090.404,72.222 1062.264,50.889 1053.264,72.306 1062.847,82.441 
			1062.847,112.156 1062.847,132.529 1062.847,139.556 1081.764,156.389 1103.097,139.556 1090.514,130.99 		"/>
	</g>
	<g>
		<polygon fill="#214498" points="105.167,134.972 95.583,124.837 95.583,105.389 95.583,74.749 61.583,50.889 33.386,61.614 
			21.333,50.889 0,67.722 12.583,76.288 12.583,135.056 12.693,135.056 40.833,156.389 49.833,134.972 40.25,124.837 40.25,95.121 
			40.25,74.749 40.25,71.338 67.917,88.363 67.917,135.056 68.027,135.056 96.167,156.389 		"/>
		<polygon fill="#214498" points="289.206,134.972 279.623,124.837 279.623,105.389 279.623,74.749 245.623,50.889 217.426,61.614 
			205.373,50.889 184.04,67.722 196.623,76.288 196.623,135.056 196.733,135.056 224.873,156.389 233.873,134.972 224.29,124.837 
			224.29,95.121 224.29,74.749 224.29,71.338 251.956,88.363 251.956,135.056 252.066,135.056 280.206,156.389 		"/>
		<polygon fill="#214498" points="387.081,134.972 377.498,124.837 377.498,105.389 377.498,74.749 343.498,50.889 315.301,61.614 
			303.248,50.889 281.915,67.722 294.498,76.288 294.498,135.056 294.608,135.056 322.748,156.389 331.748,134.972 322.165,124.837 
			322.165,95.121 322.165,74.749 322.165,71.338 349.831,88.363 349.831,135.056 349.941,135.056 378.081,156.389 		"/>
		<path fill="#214498" d="M138.816,126.665L138.816,126.665l4.599,1.795l38.599-56.696l-36.865-19.125l-34,21.333v41.897v18.409
			l45.365,23.86l31.516-12.269L138.816,126.665z M157.248,84.188L157.248,84.188l-18.432,25.899V73.972L157.248,84.188z"/>
		<polygon fill="#214498" points="429.974,132.369 429.974,79.869 443.486,79.869 454.002,60.869 429.974,60.869 429.974,28.369 
			405.529,38.369 405.529,60.869 392.017,60.869 381.502,79.869 405.529,79.869 405.529,107.924 405.529,142.321 427.196,156.389 
			452.029,147.536 		"/>
	</g>
	<g>
		<polygon fill="#214498" points="630.511,124.837 630.511,105.389 630.511,74.749 596.511,50.889 568.313,61.614 541.011,50.889 
			512.813,61.614 500.761,50.889 479.427,67.722 492.011,76.288 492.011,135.055 492.121,135.055 520.261,156.389 529.261,134.972 
			519.677,124.837 519.677,95.121 519.677,74.749 519.677,71.338 547.344,88.363 547.344,135.055 547.454,135.055 575.594,156.389 
			575.634,156.293 575.761,156.389 584.761,134.972 575.177,124.837 575.177,95.121 575.177,74.749 575.177,71.338 602.844,88.363 
			602.844,135.055 602.954,135.055 631.094,156.389 640.094,134.972 		"/>
		<polygon fill="#214498" points="674.188,124.837 674.188,64.056 659.761,48.389 640.094,62.056 646.521,70.056 646.521,135.055 
			646.631,135.055 674.771,156.389 683.771,134.972 		"/>
		<polygon fill="#214498" points="673.455,25.25 656.75,11.056 641.924,23.258 656.69,37.056 		"/>
		<path fill="#214498" d="M818.896,130.99V72.222l-47.441-20.655V0L745.01,10v52.232l-21.865-11.343l-34,21.333v29.667v30.64
			l45.365,23.86l15.207-15.207l21.737,15.207V76.596l19.774,10.959v24.601v20.372v7.027l18.917,16.833l21.333-16.833L818.896,130.99
			z M716.812,117.484V72.222l28.198,15.083v46.075L716.812,117.484z"/>
	</g>
</g>
</svg>
