<?xml version="1.0" encoding="utf-8"?>
<!-- Generator: Adobe Illustrator 17.0.0, SVG Export Plug-In . SVG Version: 6.00 Build 0)  -->
<!DOCTYPE svg PUBLIC "-//W3C//DTD SVG 1.1//EN" "http://www.w3.org/Graphics/SVG/1.1/DTD/svg11.dtd">
<svg version="1.1" id="Layer_1" xmlns="http://www.w3.org/2000/svg" xmlns:xlink="http://www.w3.org/1999/xlink" x="0px" y="0px"
	 width="937.06px" height="156.389px" viewBox="0 0 937.06 156.389" enable-background="new 0 0 937.06 156.389"
	 xml:space="preserve">
<g>
	<g>
		<polygon fill="#214498" points="575.054,122.576 575.054,0 550.61,10 550.61,98.132 550.61,132.529 574.297,156.389 
			574.671,156.015 575.054,156.389 575.054,155.632 591.582,139.104 		"/>
		<polygon fill="#214498" points="680.143,72.222 631.143,50.889 597.143,72.222 597.143,101.889 597.143,132.529 631.143,156.389 
			652.476,139.556 624.81,120.722 624.81,72.222 652.476,87.556 652.476,112.156 652.476,132.529 652.476,139.556 671.393,156.389 
			692.726,139.556 680.143,130.99 		"/>
		<path fill="#214498" d="M924.476,130.99V72.222l-47.441-20.655V0l-26.444,10v52.232l-21.865-11.343l-34,21.333v29.667v30.64
			l45.365,23.86l15.207-15.207l21.737,15.207V76.596l19.774,10.959v24.601v20.372v7.027l18.917,16.833l21.333-16.833L924.476,130.99
			z M822.393,117.484V72.222l28.198,15.083v46.075L822.393,117.484z"/>
		<polygon fill="#214498" points="724.81,72.222 724.7,72.222 696.56,50.889 687.56,72.306 697.143,82.441 697.143,101.889 
			697.143,132.529 731.143,156.389 752.476,139.556 724.81,120.722 		"/>
		<polygon fill="#214498" points="780.143,72.222 780.033,72.222 751.893,50.889 742.893,72.306 752.476,82.441 752.476,112.156 
			752.476,132.529 752.476,139.556 771.393,156.389 792.726,139.556 780.143,130.99 		"/>
	</g>
	<polygon fill="#214498" points="27.667,72.222 55.333,87.556 70.865,70.014 34,50.889 0,72.222 0,101.889 0,132.529 
		45.365,156.389 63.865,137.889 27.667,117.484 	"/>
	<g>
		<polygon fill="#214498" points="430.267,124.837 430.267,105.389 430.267,74.749 396.267,50.889 368.07,61.614 340.767,50.889 
			312.57,61.614 300.517,50.889 279.184,67.722 291.767,76.288 291.767,135.055 291.877,135.055 320.017,156.389 329.017,134.972 
			319.434,124.837 319.434,95.121 319.434,74.749 319.434,71.338 347.1,88.363 347.1,135.055 347.21,135.055 375.35,156.389 
			375.391,156.293 375.517,156.389 384.517,134.972 374.934,124.837 374.934,95.121 374.934,74.749 374.934,71.338 402.6,88.363 
			402.6,135.055 402.71,135.055 430.85,156.389 439.85,134.972 		"/>
	</g>
	<polygon fill="#214498" points="158.295,72.222 109.295,50.889 75.295,72.222 75.295,101.889 75.295,132.529 109.295,156.389 
		130.628,139.556 102.962,120.722 102.962,72.222 130.628,87.556 130.628,112.156 130.628,132.529 130.628,139.556 149.545,156.389 
		170.878,139.556 158.295,130.99 	"/>
	<polygon fill="#214498" points="199.194,122.576 199.194,0 174.75,10 174.75,98.132 174.75,132.529 198.437,156.389 
		198.811,156.015 199.194,156.389 199.194,155.632 215.722,139.104 	"/>
	<polygon fill="#214498" points="244.236,122.576 244.236,0 219.791,10 219.791,98.132 219.791,132.529 243.479,156.389 
		243.853,156.015 244.236,156.389 244.236,155.632 260.764,139.104 	"/>
	<path fill="#214498" d="M474.184,124.915L474.184,124.915l4.599,1.795l38.599-56.696l-36.865-19.125l-34,21.333v41.897v18.409
		l45.365,23.86l31.516-12.269L474.184,124.915z M492.616,82.438L492.616,82.438l-18.432,25.899V72.222L492.616,82.438z"/>
</g>
</svg>
